<?xml version="1.0" encoding="UTF-8" standalone="no"?>
<svg
   version="1.1"
   viewBox="0.0 0.0 241.16797900262466 314.257217847769"
   fill="none"
   stroke="none"
   stroke-linecap="square"
   stroke-miterlimit="10"
   id="svg49"
   sodipodi:docname="link-types-capabilities.svg"
   inkscape:version="1.1.1 (3bf5ae0d25, 2021-09-20)"
   xmlns:inkscape="http://www.inkscape.org/namespaces/inkscape"
   xmlns:sodipodi="http://sodipodi.sourceforge.net/DTD/sodipodi-0.dtd"
   xmlns="http://www.w3.org/2000/svg"
   xmlns:svg="http://www.w3.org/2000/svg">
  <defs
     id="defs53" />
  <sodipodi:namedview
     id="namedview51"
     pagecolor="#ffffff"
     bordercolor="#666666"
     borderopacity="1.0"
     inkscape:pageshadow="2"
     inkscape:pageopacity="0.0"
     inkscape:pagecheckerboard="0"
     showgrid="false"
     inkscape:zoom="1.9983629"
     inkscape:cx="120.34851"
     inkscape:cy="157.12862"
     inkscape:window-width="1828"
     inkscape:window-height="802"
     inkscape:window-x="0"
     inkscape:window-y="0"
     inkscape:window-maximized="1"
     inkscape:current-layer="svg49" />
  <clipPath
     id="p.0">
    <path
       d="m0 0l241.16798 0l0 314.25723l-241.16798 0l0 -314.25723z"
       clip-rule="nonzero"
       id="path2" />
  </clipPath>
  <g
     clip-path="url(#p.0)"
     id="g47">
    <path
       fill="#000000"
       fill-opacity="0.0"
       d="m0 0l241.16798 0l0 314.25723l-241.16798 0z"
       fill-rule="evenodd"
       id="path5" />
    <path
       fill="#f86734"
       d="m-0.23228346 0l241.79527 0l0 314.64566l-241.79527 0z"
       fill-rule="evenodd"
       id="path7" />
    <path
       stroke="#ffffff"
       stroke-width="1.0"
       stroke-linejoin="round"
       stroke-linecap="butt"
       d="m-0.23228346 0l241.79527 0l0 314.64566l-241.79527 0z"
       fill-rule="evenodd"
       id="path9" />
    <path
       fill="#073042"
       d="m5.9790025 81.28871l229.38582 0l0 229.16536l-229.38582 0z"
       fill-rule="evenodd"
       id="path11" />
    <path
       stroke="#000000"
       stroke-width="1.0"
       stroke-linejoin="round"
       stroke-linecap="butt"
       d="m5.9790025 81.28871l229.38582 0l0 229.16536l-229.38582 0z"
       fill-rule="evenodd"
       id="path13" />
    <path
       fill="#000000"
       fill-opacity="0.0"
       d="m5.8898025 117.89764l229.38583 0l0 42.015755l-229.38583 0z"
       fill-rule="evenodd"
       id="path15" />
    <path
       fill="#000000"
       fill-opacity="0.0"
       d="m-0.22440945 39.272964l241.79527 0l0 42.015747l-241.79527 0z"
       fill-rule="evenodd"
       id="path19" />
    <path
       fill="#000000"
       d="m72.59445 52.833588l1.578125 0l0 5.765625l6.859375 0l0 -5.765625l1.59375 0l0 13.359375l-1.59375 0l0 -6.078125l-6.859375 0l0 6.078125l-1.578125 0l0 -13.359375zm15.460815 13.65625q-1.046875 0 -1.875 -0.40625q-0.8125 -0.40625 -1.265625 -1.125q-0.4375 -0.71875 -0.4375 -1.640625q0 -1.515625 1.125 -2.359375q1.140625 -0.84375 2.875 -0.84375q0.859375 0 1.59375 0.1875q0.75 0.1875 1.140625 0.421875l0 -0.578125q0 -1.0625 -0.75 -1.703125q-0.75 -0.640625 -1.890625 -0.640625q-0.78125 0 -1.46875 0.34375q-0.671875 0.34375 -1.0625 0.953125l-1.203125 -0.890625q0.5625 -0.859375 1.546875 -1.34375q1.0 -0.484375 2.1875 -0.484375q1.9375 0 3.03125 1.015625q1.109375 1.015625 1.109375 2.765625l0 6.03125l-1.5 0l0 -1.359375l-0.078125 0q-0.40625 0.6875 -1.234375 1.171875q-0.8125 0.484375 -1.84375 0.484375zm0.140625 -1.390625q0.8125 0 1.5 -0.40625q0.6875 -0.421875 1.09375 -1.109375q0.421875 -0.6875 0.421875 -1.515625q-0.453125 -0.296875 -1.109375 -0.484375q-0.65625 -0.1875 -1.375 -0.1875q-1.3125 0 -1.984375 0.546875q-0.65625 0.53125 -0.65625 1.390625q0 0.78125 0.59375 1.28125q0.609375 0.484375 1.515625 0.484375zm6.7189636 -8.421875l1.515625 0l0 1.40625l0.078125 0q0.390625 -0.71875 1.25 -1.203125q0.859375 -0.5 1.828125 -0.5q1.71875 0 2.609375 1.0q0.90625 1.0 0.90625 2.71875l0 6.09375l-1.578125 0l0 -5.859375q0 -1.328125 -0.640625 -1.921875q-0.625 -0.59375 -1.734375 -0.59375q-0.765625 0 -1.375 0.4375q-0.59375 0.421875 -0.9375 1.125q-0.328125 0.6875 -0.328125 1.453125l0 5.359375l-1.59375 0l0 -9.515625zm14.513031 9.8125q-1.28125 0 -2.328125 -0.640625q-1.03125 -0.65625 -1.625 -1.796875q-0.59375 -1.15625 -0.59375 -2.609375q0 -1.4375 0.59375 -2.59375q0.59375 -1.15625 1.625 -1.8125q1.046875 -0.65625 2.328125 -0.65625q1.09375 0 1.9375 0.5q0.859375 0.484375 1.3125 1.21875l0.078125 0l-0.078125 -1.328125l0 -3.9375l1.59375 0l0 13.359375l-1.515625 0l0 -1.40625l-0.078125 0q-0.453125 0.71875 -1.3125 1.21875q-0.84375 0.484375 -1.9375 0.484375zm0.171875 -1.4375q0.84375 0 1.5625 -0.4375q0.71875 -0.453125 1.15625 -1.265625q0.4375 -0.828125 0.4375 -1.90625q0 -1.09375 -0.4375 -1.90625q-0.4375 -0.828125 -1.15625 -1.265625q-0.71875 -0.453125 -1.5625 -0.453125q-0.8125 0 -1.546875 0.453125q-0.734375 0.4375 -1.171875 1.265625q-0.4375 0.828125 -0.4375 1.90625q0 1.0625 0.4375 1.890625q0.4375 0.828125 1.171875 1.28125q0.734375 0.4375 1.546875 0.4375zm7.012314 -12.21875l1.59375 0l0 13.359375l-1.59375 0l0 -13.359375zm8.077499 13.65625q-1.359375 0 -2.4375 -0.640625q-1.078125 -0.65625 -1.6875 -1.796875q-0.609375 -1.15625 -0.609375 -2.59375q0 -1.359375 0.5625 -2.53125q0.578125 -1.171875 1.625 -1.859375q1.0625 -0.6875 2.421875 -0.6875q1.390625 0 2.421875 0.625q1.03125 0.625 1.578125 1.734375q0.546875 1.09375 0.546875 2.515625q0 0.21875 -0.03125 0.484375l-7.546875 0q0.0625 1.078125 0.53125 1.828125q0.46875 0.734375 1.1875 1.109375q0.71875 0.375 1.5 0.375q1.859375 0 2.8125 -1.71875l1.34375 0.65625q-0.59375 1.140625 -1.65625 1.828125q-1.0625 0.671875 -2.5625 0.671875zm2.75 -6.0625q-0.046875 -0.59375 -0.34375 -1.1875q-0.296875 -0.609375 -0.9375 -1.015625q-0.625 -0.40625 -1.59375 -0.40625q-1.125 0 -1.90625 0.71875q-0.78125 0.71875 -1.03125 1.890625l5.8125 0zm2.3472137 5.765625l0 0zm10.033035 0.296875q-1.4375 0 -2.5625 -0.65625q-1.109375 -0.671875 -1.734375 -1.84375q-0.609375 -1.1875 -0.609375 -2.734375l0 -8.421875l1.59375 0l0 8.484375q0 1.625 0.859375 2.640625q0.859375 1.015625 2.453125 1.015625q1.609375 0 2.46875 -1.015625q0.875 -1.015625 0.875 -2.640625l0 -8.484375l1.578125 0l0 8.421875q0 1.546875 -0.59375 2.75q-0.578125 1.1875 -1.703125 1.84375q-1.109375 0.640625 -2.625 0.640625zm7.604416 -13.65625l4.5 0q1.109375 0 2.0625 0.515625q0.953125 0.5 1.515625 1.40625q0.578125 0.890625 0.578125 2.03125q0 0.9375 -0.421875 1.75q-0.421875 0.796875 -1.171875 1.34375q-0.734375 0.53125 -1.625 0.71875l-0.03125 0.046875l3.765625 5.46875l0 0.078125l-1.859375 0l-3.640625 -5.453125l-2.09375 0l0 5.453125l-1.578125 0l0 -13.359375zm4.40625 6.4375q0.703125 0 1.296875 -0.3125q0.609375 -0.328125 0.96875 -0.890625q0.375 -0.5625 0.375 -1.28125q0 -0.609375 -0.328125 -1.171875q-0.3125 -0.5625 -0.890625 -0.90625q-0.5625 -0.359375 -1.296875 -0.359375l-2.953125 0l0 4.921875l2.828125 0zm6.5263214 -6.4375l1.578125 0l0 13.359375l-1.578125 0l0 -13.359375zm7.5707855 13.65625q-1.53125 0 -2.5625 -0.71875q-1.015625 -0.71875 -1.453125 -1.828125l1.421875 -0.640625q0.34375 0.859375 1.046875 1.328125q0.703125 0.46875 1.546875 0.46875q0.890625 0 1.515625 -0.359375q0.640625 -0.375 0.640625 -1.046875q0 -0.59375 -0.5 -0.953125q-0.5 -0.375 -1.578125 -0.625l-1.15625 -0.3125q-1.140625 -0.28125 -1.875 -0.9375q-0.71875 -0.671875 -0.71875 -1.75q0 -0.8125 0.484375 -1.4375q0.5 -0.625 1.3125 -0.953125q0.828125 -0.34375 1.78125 -0.34375q1.25 0 2.21875 0.546875q0.984375 0.53125 1.390625 1.5l-1.375 0.640625q-0.640625 -1.265625 -2.25 -1.265625q-0.796875 0 -1.390625 0.359375q-0.578125 0.359375 -0.578125 0.921875q0 0.53125 0.40625 0.859375q0.421875 0.3125 1.234375 0.515625l1.390625 0.359375q1.390625 0.359375 2.09375 1.0625q0.71875 0.6875 0.71875 1.703125q0 0.875 -0.515625 1.546875q-0.5 0.65625 -1.359375 1.015625q-0.84375 0.34375 -1.890625 0.34375z"
       fill-rule="nonzero"
       id="path21" />
    <path
       fill="#3ddc84"
       d="m13.632545 154.91333l214.07874 0l0 146.47299l-214.07874 0z"
       fill-rule="evenodd"
       id="path23" />
    <path
       stroke="#000000"
       stroke-width="1.0"
       stroke-linejoin="round"
       stroke-linecap="butt"
       d="m13.632545 154.91333l214.07874 0l0 146.47299l-214.07874 0z"
       fill-rule="evenodd"
       id="path25" />
    <path
       fill="#000000"
       fill-opacity="0.0"
       d="m13.632545 237.50308l214.07874 0l0 64.63193l-214.07874 0z"
       fill-rule="evenodd"
       id="path27" />
    <path
       fill="#000000"
       d="m47.127655 251.0637l1.578125 0l0 5.7656097l6.859375 0l0 -5.7656097l1.59375 0l0 13.35936l-1.59375 0l0 -6.078125l-6.859375 0l0 6.078125l-1.578125 0l0 -13.35936zm15.460815 13.656235q-1.046875 0 -1.875 -0.40625q-0.8125 -0.40625 -1.265625 -1.125q-0.4375 -0.71875 -0.4375 -1.640625q0 -1.515625 1.125 -2.359375q1.140625 -0.84375 2.875 -0.84375q0.859375 0 1.59375 0.1875q0.75 0.1875 1.140625 0.421875l0 -0.578125q0 -1.0625 -0.75 -1.703125q-0.75 -0.640625 -1.890625 -0.640625q-0.78125 0 -1.46875 0.34375q-0.671875 0.34375 -1.0625 0.953125l-1.203125 -0.890625q0.5625 -0.85935974 1.546875 -1.3437347q1.0 -0.484375 2.1875 -0.484375q1.9375 0 3.03125 1.015625q1.109375 1.0156097 1.109375 2.7656097l0 6.03125l-1.5 0l0 -1.359375l-0.078125 0q-0.40625 0.6875 -1.234375 1.171875q-0.8125 0.484375 -1.84375 0.484375zm0.140625 -1.390625q0.8125 0 1.5 -0.40625q0.6875 -0.421875 1.09375 -1.109375q0.421875 -0.6875 0.421875 -1.515625q-0.453125 -0.296875 -1.109375 -0.484375q-0.65625 -0.1875 -1.375 -0.1875q-1.3125 0 -1.984375 0.546875q-0.65625 0.53125 -0.65625 1.390625q0 0.78125 0.59375 1.28125q0.609375 0.484375 1.515625 0.484375zm6.7189636 -8.42186l1.515625 0l0 1.4062347l0.078125 0q0.390625 -0.71873474 1.25 -1.2031097q0.859375 -0.5 1.828125 -0.5q1.71875 0 2.609375 1.0q0.90625 0.99998474 0.90625 2.7187347l0 6.09375l-1.578125 0l0 -5.859375q0 -1.328125 -0.640625 -1.921875q-0.625 -0.59375 -1.734375 -0.59375q-0.765625 0 -1.375 0.4375q-0.59375 0.421875 -0.9375 1.125q-0.328125 0.6875 -0.328125 1.453125l0 5.359375l-1.59375 0l0 -9.51561zm14.513031 9.812485q-1.28125 0 -2.328125 -0.640625q-1.03125 -0.65625 -1.625 -1.796875q-0.59375 -1.15625 -0.59375 -2.609375q0 -1.4375 0.59375 -2.59375q0.59375 -1.1562347 1.625 -1.8124847q1.046875 -0.65625 2.328125 -0.65625q1.09375 0 1.9375 0.5q0.859375 0.484375 1.3125 1.2187347l0.078125 0l-0.078125 -1.3281097l0 -3.9375l1.59375 0l0 13.35936l-1.515625 0l0 -1.40625l-0.078125 0q-0.453125 0.71875 -1.3125 1.21875q-0.84375 0.484375 -1.9375 0.484375zm0.171875 -1.4375q0.84375 0 1.5625 -0.4375q0.71875 -0.453125 1.15625 -1.265625q0.4375 -0.828125 0.4375 -1.90625q0 -1.09375 -0.4375 -1.90625q-0.4375 -0.828125 -1.15625 -1.265625q-0.71875 -0.453125 -1.5625 -0.453125q-0.8125 0 -1.546875 0.453125q-0.734375 0.4375 -1.171875 1.265625q-0.4375 0.828125 -0.4375 1.90625q0 1.0625 0.4375 1.890625q0.4375 0.828125 1.171875 1.28125q0.734375 0.4375 1.546875 0.4375zm7.012314 -12.218735l1.59375 0l0 13.35936l-1.59375 0l0 -13.35936zm8.077499 13.656235q-1.359375 0 -2.4375 -0.640625q-1.078125 -0.65625 -1.6875 -1.796875q-0.609375 -1.15625 -0.609375 -2.59375q0 -1.359375 0.5625 -2.53125q0.578125 -1.1718597 1.625 -1.8593597q1.0625 -0.6875 2.421875 -0.6875q1.390625 0 2.421875 0.625q1.03125 0.625 1.578125 1.7343597q0.546875 1.09375 0.546875 2.515625q0 0.21875 -0.03125 0.484375l-7.546875 0q0.0625 1.078125 0.53125 1.828125q0.46875 0.734375 1.1875 1.109375q0.71875 0.375 1.5 0.375q1.859375 0 2.8125 -1.71875l1.34375 0.65625q-0.59375 1.140625 -1.65625 1.828125q-1.0625 0.671875 -2.5625 0.671875zm2.75 -6.0625q-0.046875 -0.59375 -0.34375 -1.1875q-0.296875 -0.609375 -0.9375 -1.015625q-0.625 -0.40625 -1.59375 -0.40625q-1.125 0 -1.90625 0.71875q-0.78125 0.71875 -1.03125 1.890625l5.8125 0zm2.3472137 5.765625l0 0zm8.546997 0.296875q-1.046875 0 -1.875 -0.40625q-0.8125 -0.40625 -1.265625 -1.125q-0.4375 -0.71875 -0.4375 -1.640625q0 -1.515625 1.125 -2.359375q1.140625 -0.84375 2.875 -0.84375q0.859375 0 1.59375 0.1875q0.75 0.1875 1.140625 0.421875l0 -0.578125q0 -1.0625 -0.75 -1.703125q-0.75 -0.640625 -1.890625 -0.640625q-0.78125 0 -1.46875 0.34375q-0.671875 0.34375 -1.0625 0.953125l-1.203125 -0.890625q0.5625 -0.85935974 1.546875 -1.3437347q1.0 -0.484375 2.1875 -0.484375q1.9375 0 3.03125 1.015625q1.109375 1.0156097 1.109375 2.7656097l0 6.03125l-1.5 0l0 -1.359375l-0.078125 0q-0.40625 0.6875 -1.234375 1.171875q-0.8125 0.484375 -1.84375 0.484375zm0.140625 -1.390625q0.8125 0 1.5 -0.40625q0.6875 -0.421875 1.09375 -1.109375q0.421875 -0.6875 0.421875 -1.515625q-0.453125 -0.296875 -1.109375 -0.484375q-0.65625 -0.1875 -1.375 -0.1875q-1.3125 0 -1.984375 0.546875q-0.65625 0.53125 -0.65625 1.390625q0 0.78125 0.59375 1.28125q0.609375 0.484375 1.515625 0.484375zm10.172089 1.390625q-1.71875 0 -2.625 -1.0q-0.90625 -1.015625 -0.90625 -2.828125l0 -5.9843597l1.59375 0l0 5.7499847q0 1.359375 0.609375 2.0q0.625 0.625 1.671875 0.625q0.796875 0 1.421875 -0.421875q0.625 -0.4375 0.96875 -1.125q0.34375 -0.6875 0.34375 -1.453125l0 -5.3749847l1.59375 0l0 9.51561l-1.515625 0l0 -1.375l-0.078125 0q-0.390625 0.703125 -1.25 1.1875q-0.859375 0.484375 -1.828125 0.484375zm10.762619 -0.140625q-0.578125 0 -1.078125 -0.1875q-0.484375 -0.1875 -0.828125 -0.515625q-0.734375 -0.703125 -0.734375 -1.953125l0 -5.578125l-1.671875 0l0 -1.4374847l1.671875 0l0 -2.6875l1.578125 0l0 2.6875l2.328125 0l0 1.4374847l-2.328125 0l0 5.1875q0 0.78125 0.296875 1.15625q0.359375 0.40625 1.03125 0.40625q0.578125 0 1.046875 -0.3125l0 1.546875q-0.28125 0.125 -0.578125 0.1875q-0.28125 0.0625 -0.734375 0.0625zm7.1519012 0.140625q-1.40625 0 -2.53125 -0.671875q-1.109375 -0.671875 -1.734375 -1.828125q-0.625 -1.15625 -0.625 -2.546875q0 -1.40625 0.625 -2.5625q0.625 -1.1562347 1.734375 -1.8281097q1.125 -0.671875 2.53125 -0.671875q1.390625 0 2.515625 0.671875q1.125 0.671875 1.75 1.8281097q0.625 1.15625 0.625 2.5625q0 1.390625 -0.625 2.546875q-0.625 1.15625 -1.75 1.828125q-1.125 0.671875 -2.515625 0.671875zm0 -1.4375q0.875 0 1.625 -0.4375q0.765625 -0.4375 1.21875 -1.25q0.453125 -0.828125 0.453125 -1.921875q0 -1.109375 -0.453125 -1.921875q-0.453125 -0.828125 -1.21875 -1.265625q-0.75 -0.4375 -1.625 -0.4375q-0.875 0 -1.640625 0.4375q-0.765625 0.4375 -1.234375 1.265625q-0.453125 0.8125 -0.453125 1.921875q0 1.09375 0.453125 1.921875q0.46875 0.8125 1.234375 1.25q0.765625 0.4375 1.640625 0.4375zm5.8222656 -12.218735l1.75 0l3.296875 9.687485l0.453125 1.328125l0.078125 0l0.46875 -1.328125l3.4375 -9.687485l1.765625 0l-4.890625 13.35936l-1.625 0l-4.734375 -13.35936zm15.792725 13.656235q-1.359375 0 -2.4375 -0.640625q-1.078125 -0.65625 -1.6875 -1.796875q-0.609375 -1.15625 -0.609375 -2.59375q0 -1.359375 0.5625 -2.53125q0.578125 -1.1718597 1.625 -1.8593597q1.0625 -0.6875 2.421875 -0.6875q1.390625 0 2.421875 0.625q1.03125 0.625 1.578125 1.7343597q0.546875 1.09375 0.546875 2.515625q0 0.21875 -0.03125 0.484375l-7.546875 0q0.0625 1.078125 0.53125 1.828125q0.46875 0.734375 1.1875 1.109375q0.71875 0.375 1.5 0.375q1.859375 0 2.8125 -1.71875l1.34375 0.65625q-0.59375 1.140625 -1.65625 1.828125q-1.0625 0.671875 -2.5625 0.671875zm2.75 -6.0625q-0.046875 -0.59375 -0.34375 -1.1875q-0.296875 -0.609375 -0.9375 -1.015625q-0.625 -0.40625 -1.59375 -0.40625q-1.125 0 -1.90625 0.71875q-0.78125 0.71875 -1.03125 1.890625l5.8125 0zm3.5190735 -3.7499847l1.515625 0l0 1.5312347l0.078125 0q0.28125 -0.78123474 1.078125 -1.2968597q0.796875 -0.515625 1.671875 -0.515625q0.65625 0 1.125 0.1875l0 1.7187347q-0.59375 -0.296875 -1.34375 -0.296875q-0.6875 0 -1.265625 0.390625q-0.578125 0.390625 -0.921875 1.0625q-0.34375 0.65625 -0.34375 1.421875l0 5.3125l-1.59375 0l0 -9.51561zm7.9335938 -1.75q-0.46875 0 -0.8125 -0.328125q-0.328125 -0.34375 -0.328125 -0.8125q0 -0.484375 0.328125 -0.8125q0.34375 -0.328125 0.8125 -0.328125q0.484375 0 0.8125 0.328125q0.328125 0.328125 0.328125 0.8125q0 0.46875 -0.328125 0.8125q-0.328125 0.328125 -0.8125 0.328125zm-0.78125 1.75l1.578125 0l0 9.51561l-1.578125 0l0 -9.51561zm5.1694336 1.4374847l-1.765625 0l0 -1.4374847l1.765625 0l0 -1.03125q0 -0.890625 0.40625 -1.5625q0.40625 -0.671875 1.09375 -1.03125q0.703125 -0.359375 1.53125 -0.359375q0.8125 0 1.40625 0.21875l0 1.546875q-0.34375 -0.125 -0.640625 -0.203125q-0.296875 -0.09375 -0.703125 -0.09375q-0.625 0 -1.078125 0.4375q-0.4375 0.4375 -0.4375 1.21875l0 0.859375l2.453125 0l0 1.4374847l-2.453125 0l0 8.078125l-1.578125 0l0 -8.078125zm8.867615 7.484375l-3.921875 -8.92186l1.703125 0l2.984375 7.0781097l0.046875 0l2.875 -7.0781097l1.71875 0l-5.890625 13.54686l-1.640625 0l2.125 -4.625zm5.5484924 0.59375l0 0z"
       fill-rule="nonzero"
       id="path29" />
    <path
       fill="#000000"
       d="m88.77233 287.11996q-1.046875 0 -1.875 -0.40625q-0.8125 -0.40625 -1.265625 -1.125q-0.4375 -0.71875 -0.4375 -1.640625q0 -1.515625 1.125 -2.359375q1.140625 -0.84375 2.875 -0.84375q0.859375 0 1.59375 0.1875q0.75 0.1875 1.140625 0.421875l0 -0.578125q0 -1.0625 -0.75 -1.703125q-0.75 -0.640625 -1.890625 -0.640625q-0.78125 0 -1.46875 0.34375q-0.671875 0.34375 -1.0625 0.953125l-1.203125 -0.890625q0.5625 -0.859375 1.546875 -1.34375q1.0 -0.484375 2.1875 -0.484375q1.9375 0 3.03125 1.015625q1.109375 1.015625 1.109375 2.765625l0 6.03125l-1.5 0l0 -1.359375l-0.078125 0q-0.40625 0.6875 -1.234375 1.171875q-0.8125 0.484375 -1.84375 0.484375zm0.140625 -1.390625q0.8125 0 1.5 -0.40625q0.6875 -0.421875 1.09375 -1.109375q0.421875 -0.6875 0.421875 -1.515625q-0.453125 -0.296875 -1.109375 -0.484375q-0.65625 -0.1875 -1.375 -0.1875q-1.3125 0 -1.984375 0.546875q-0.65625 0.53125 -0.65625 1.390625q0 0.78125 0.59375 1.28125q0.609375 0.484375 1.515625 0.484375zm10.188553 1.25q-0.578125 0 -1.078125 -0.1875q-0.484375 -0.1875 -0.828125 -0.515625q-0.734375 -0.703125 -0.734375 -1.953125l0 -5.578125l-1.671875 0l0 -1.4375l1.671875 0l0 -2.6875l1.578125 0l0 2.6875l4.296875 0l0 -2.6875l1.5625 0l0 2.6875l2.328125 0l0 1.4375l-2.328125 0l0 5.1875q0 0.78125 0.3125 1.15625q0.359375 0.40625 1.03125 0.40625q0.5625 0 1.03125 -0.3125l0 1.546875q-0.28125 0.125 -0.5625 0.1875q-0.28125 0.0625 -0.734375 0.0625q-0.578125 0 -1.078125 -0.1875q-0.5 -0.1875 -0.84375 -0.515625q-0.375 -0.34375 -0.546875 -0.8125q-0.171875 -0.484375 -0.171875 -1.140625l0 -5.578125l-4.296875 0l0 5.1875q0 0.78125 0.296875 1.15625q0.359375 0.40625 1.03125 0.40625q0.578125 0 1.046875 -0.3125l0 1.546875q-0.28125 0.125 -0.578125 0.1875q-0.28125 0.0625 -0.734375 0.0625zm9.029999 -9.671875l1.515625 0l0 1.53125l0.078125 0q0.28125 -0.78125 1.078125 -1.296875q0.796875 -0.515625 1.671875 -0.515625q0.65625 0 1.125 0.1875l0 1.71875q-0.59375 -0.296875 -1.34375 -0.296875q-0.6875 0 -1.265625 0.390625q-0.578125 0.390625 -0.921875 1.0625q-0.34375 0.65625 -0.34375 1.421875l0 5.3125l-1.59375 0l0 -9.515625zm7.9335938 -1.75q-0.46875 0 -0.8125 -0.328125q-0.328125 -0.34375 -0.328125 -0.8125q0 -0.484375 0.328125 -0.8125q0.34375 -0.328125 0.8125 -0.328125q0.484375 0 0.8125 0.328125q0.328125 0.328125 0.328125 0.8125q0 0.46875 -0.328125 0.8125q-0.328125 0.328125 -0.8125 0.328125zm-0.78125 1.75l1.578125 0l0 9.515625l-1.578125 0l0 -9.515625zm8.888184 9.8125q-1.078125 0 -1.953125 -0.484375q-0.859375 -0.5 -1.28125 -1.21875l-0.078125 0l0 1.40625l-1.515625 0l0 -13.359375l1.59375 0l0 3.9375l-0.078125 1.328125l0.078125 0q0.421875 -0.734375 1.28125 -1.21875q0.875 -0.5 1.953125 -0.5q1.296875 0 2.328125 0.65625q1.03125 0.65625 1.6250076 1.8125q0.609375 1.15625 0.609375 2.59375q0 1.453125 -0.609375 2.609375q-0.5937576 1.140625 -1.6250076 1.796875q-1.03125 0.640625 -2.328125 0.640625zm-0.15625 -1.4375q0.8125 0 1.53125 -0.4375q0.734375 -0.453125 1.15625 -1.265625q0.4375 -0.828125 0.4375 -1.90625q0 -1.09375 -0.4375 -1.90625q-0.421875 -0.828125 -1.15625 -1.265625q-0.71875 -0.453125 -1.53125 -0.453125q-0.84375 0 -1.5625 0.453125q-0.71875 0.4375 -1.15625 1.265625q-0.4375 0.8125 -0.4375 1.90625q0 1.078125 0.4375 1.90625q0.4375 0.8125 1.15625 1.265625q0.71875 0.4375 1.5625 0.4375zm9.918983 1.4375q-1.71875 0 -2.625 -1.0q-0.90625 -1.015625 -0.90625 -2.828125l0 -5.984375l1.59375 0l0 5.75q0 1.359375 0.609375 2.0q0.625 0.625 1.671875 0.625q0.796875 0 1.421875 -0.421875q0.625 -0.4375 0.96875 -1.125q0.34375 -0.6875 0.34375 -1.453125l0 -5.375l1.59375 0l0 9.515625l-1.515625 0l0 -1.375l-0.078125 0q-0.390625 0.703125 -1.25 1.1875q-0.859375 0.484375 -1.828125 0.484375zm10.762619 -0.140625q-0.578125 0 -1.078125 -0.1875q-0.484375 -0.1875 -0.828125 -0.515625q-0.734375 -0.703125 -0.734375 -1.953125l0 -5.578125l-1.671875 0l0 -1.4375l1.671875 0l0 -2.6875l1.578125 0l0 2.6875l2.328125 0l0 1.4375l-2.328125 0l0 5.1875q0 0.78125 0.296875 1.15625q0.359375 0.40625 1.03125 0.40625q0.578125 0 1.046875 -0.3125l0 1.546875q-0.28125 0.125 -0.578125 0.1875q-0.28125 0.0625 -0.734375 0.0625zm6.9956512 0.140625q-1.359375 0 -2.4375 -0.640625q-1.078125 -0.65625 -1.6875 -1.796875q-0.609375 -1.15625 -0.609375 -2.59375q0 -1.359375 0.5625 -2.53125q0.578125 -1.171875 1.625 -1.859375q1.0625 -0.6875 2.421875 -0.6875q1.390625 0 2.421875 0.625q1.03125 0.625 1.578125 1.734375q0.546875 1.09375 0.546875 2.515625q0 0.21875 -0.03125 0.484375l-7.546875 0q0.0625 1.078125 0.53125 1.828125q0.46875 0.734375 1.1875 1.109375q0.71875 0.375 1.5 0.375q1.859375 0 2.8125 -1.71875l1.34375 0.65625q-0.59375 1.140625 -1.65625 1.828125q-1.0625 0.671875 -2.5625 0.671875zm2.75 -6.0625q-0.046875 -0.59375 -0.34375 -1.1875q-0.296875 -0.609375 -0.9375 -1.015625q-0.625 -0.40625 -1.59375 -0.40625q-1.125 0 -1.90625 0.71875q-0.78125 0.71875 -1.03125 1.890625l5.8125 0z"
       fill-rule="nonzero"
       id="path31" />
    <path
       fill="#000000"
       fill-opacity="0.0"
       d="m33.002625 154.91328l175.33858 0l0 96.96954l-175.33858 0z"
       fill-rule="evenodd"
       id="path33" />
    <path
       fill="#000000"
       d="m72.4673 171.72704l3.0625 0l8.703125 22.90625l-2.96875 0l-2.296875 -6.296875l-9.921875 0l-2.3125 6.296875l-2.96875 0l8.703125 -22.90625zm5.5625 14.046875l-3.0625 -8.265625l-0.90625 -2.453125l-0.125 0l-0.890625 2.453125l-3.078125 8.265625l8.0625 0zm8.705673 -7.453125l2.59375 0l0 2.390625l0.125 0q0.671875 -1.21875 2.140625 -2.0625q1.484375 -0.84375 3.140625 -0.84375q2.9375 0 4.484375 1.71875q1.5625 1.703125 1.5625 4.640625l0 10.46875l-2.71875 0l0 -10.046875q0 -2.265625 -1.09375 -3.296875q-1.078125 -1.03125 -2.96875 -1.03125q-1.3125 0 -2.359375 0.75q-1.03125 0.734375 -1.609375 1.9375q-0.578125 1.1875 -0.578125 2.5l0 9.1875l-2.71875 0l0 -16.3125zm24.889542 16.828125q-2.203125 0 -3.984375 -1.125q-1.765625 -1.125 -2.796875 -3.078125q-1.015625 -1.96875 -1.015625 -4.46875q0 -2.46875 1.015625 -4.453125q1.03125 -1.984375 2.796875 -3.09375q1.78125 -1.125 3.984375 -1.125q1.859375 0 3.328125 0.84375q1.484375 0.84375 2.25 2.09375l0.125 0l-0.125 -2.265625l0 -6.75l2.71875 0l0 22.90625l-2.59375 0l0 -2.40625l-0.125 0q-0.765625 1.21875 -2.25 2.078125q-1.46875 0.84375 -3.328125 0.84375zm0.296875 -2.46875q1.4375 0 2.671875 -0.765625q1.234375 -0.765625 1.984375 -2.171875q0.75 -1.40625 0.75 -3.265625q0 -1.859375 -0.75 -3.265625q-0.75 -1.40625 -1.984375 -2.171875q-1.234375 -0.78125 -2.671875 -0.78125q-1.40625 0 -2.65625 0.78125q-1.25 0.765625 -2.0 2.1875q-0.75 1.421875 -0.75 3.25q0 1.8125 0.75 3.25q0.75 1.421875 2.0 2.1875q1.25 0.765625 2.65625 0.765625zm12.029663 -14.359375l2.59375 0l0 2.609375l0.125 0q0.484375 -1.34375 1.859375 -2.21875q1.375 -0.875 2.875 -0.875q1.125 0 1.921875 0.3125l0 2.953125q-1.015625 -0.515625 -2.296875 -0.515625q-1.1875 0 -2.1875 0.671875q-0.984375 0.671875 -1.578125 1.8125q-0.59375 1.125 -0.59375 2.4375l0 9.125l-2.71875 0l0 -16.3125zm18.555649 16.828125q-2.390625 0 -4.3125 -1.15625q-1.921875 -1.15625 -3.0 -3.140625q-1.0625 -1.984375 -1.0625 -4.375q0 -2.40625 1.0625 -4.390625q1.078125 -1.984375 3.0 -3.125q1.921875 -1.15625 4.3125 -1.15625q2.40625 0 4.328125 1.15625q1.921875 1.140625 2.984375 3.125q1.078125 1.984375 1.078125 4.390625q0 2.390625 -1.078125 4.375q-1.0625 1.984375 -2.984375 3.140625q-1.921875 1.15625 -4.328125 1.15625zm0 -2.46875q1.515625 0 2.796875 -0.75q1.296875 -0.75 2.078125 -2.15625q0.796875 -1.40625 0.796875 -3.296875q0 -1.890625 -0.796875 -3.296875q-0.78125 -1.40625 -2.078125 -2.15625q-1.28125 -0.765625 -2.796875 -0.765625q-1.5 0 -2.8125 0.765625q-1.3125 0.75 -2.09375 2.15625q-0.78125 1.40625 -0.78125 3.296875q0 1.890625 0.78125 3.296875q0.78125 1.40625 2.09375 2.15625q1.3125 0.75 2.8125 0.75zm12.830154 -17.375q-0.796875 0 -1.375 -0.578125q-0.578125 -0.578125 -0.578125 -1.375q0 -0.828125 0.578125 -1.390625q0.578125 -0.5625 1.375 -0.5625q0.84375 0 1.390625 0.5625q0.5625 0.5625 0.5625 1.390625q0 0.796875 -0.5625 1.375q-0.546875 0.578125 -1.390625 0.578125zm-1.34375 3.015625l2.71875 0l0 16.3125l-2.71875 0l0 -16.3125zm13.759506 16.828125q-2.203125 0 -3.984375 -1.125q-1.765625 -1.125 -2.796875 -3.078125q-1.015625 -1.96875 -1.015625 -4.46875q0 -2.46875 1.015625 -4.453125q1.03125 -1.984375 2.796875 -3.09375q1.78125 -1.125 3.984375 -1.125q1.859375 0 3.328125 0.84375q1.484375 0.84375 2.25 2.09375l0.125 0l-0.125 -2.265625l0 -6.75l2.71875 0l0 22.90625l-2.59375 0l0 -2.40625l-0.125 0q-0.765625 1.21875 -2.25 2.078125q-1.46875 0.84375 -3.328125 0.84375zm0.296875 -2.46875q1.4375 0 2.671875 -0.765625q1.234375 -0.765625 1.984375 -2.171875q0.75 -1.40625 0.75 -3.265625q0 -1.859375 -0.75 -3.265625q-0.75 -1.40625 -1.984375 -2.171875q-1.234375 -0.78125 -2.671875 -0.78125q-1.40625 0 -2.65625 0.78125q-1.25 0.765625 -2.0 2.1875q-0.75 1.421875 -0.75 3.25q0 1.8125 0.75 3.25q0.75 1.421875 2.0 2.1875q1.25 0.765625 2.65625 0.765625zm10.014038 1.953125l0 0z"
       fill-rule="nonzero"
       id="path35" />
    <path
       fill="#000000"
       d="m60.147278 210.12703l3.0625 0l8.703125 22.90625l-2.96875 0l-2.296875 -6.296875l-9.921875 0l-2.3125 6.296875l-2.96875 0l8.703125 -22.90625zm5.5625 14.046875l-3.0625 -8.265625l-0.90625 -2.453125l-0.125 0l-0.890625 2.453125l-3.078125 8.265625l8.0625 0zm8.740677 -7.453125l2.59375 0l0 2.421875l0.125 0q0.734375 -1.25 2.21875 -2.09375q1.484375 -0.84375 3.34375 -0.84375q2.21875 0 3.984375 1.125q1.78125 1.109375 2.796875 3.09375q1.03125 1.984375 1.03125 4.453125q0 2.5 -1.03125 4.46875q-1.015625 1.953125 -2.796875 3.078125q-1.765625 1.125 -3.984375 1.125q-1.859375 0 -3.34375 -0.84375q-1.484375 -0.859375 -2.21875 -2.078125l-0.125 0l0.125 2.25l0 7.0625l-2.71875 0l0 -23.21875zm8.0 14.359375q1.40625 0 2.65625 -0.765625q1.25 -0.765625 1.984375 -2.171875q0.734375 -1.40625 0.734375 -3.265625q0 -1.859375 -0.734375 -3.265625q-0.734375 -1.40625 -1.984375 -2.171875q-1.25 -0.78125 -2.65625 -0.78125q-1.4375 0 -2.671875 0.78125q-1.234375 0.765625 -1.984375 2.171875q-0.75 1.40625 -0.75 3.265625q0 1.859375 0.75 3.265625q0.75 1.40625 1.984375 2.171875q1.234375 0.765625 2.671875 0.765625zm10.816025 -14.359375l2.59375 0l0 2.421875l0.125 0q0.734375 -1.25 2.21875 -2.09375q1.484375 -0.84375 3.34375 -0.84375q2.21875 0 3.984375 1.125q1.78125 1.109375 2.796875 3.09375q1.03125 1.984375 1.03125 4.453125q0 2.5 -1.03125 4.46875q-1.015625 1.953125 -2.796875 3.078125q-1.765625 1.125 -3.984375 1.125q-1.859375 0 -3.34375 -0.84375q-1.484375 -0.859375 -2.21875 -2.078125l-0.125 0l0.125 2.25l0 7.0625l-2.71875 0l0 -23.21875zm8.0 14.359375q1.40625 0 2.65625 -0.765625q1.25 -0.765625 1.984375 -2.171875q0.734375 -1.40625 0.734375 -3.265625q0 -1.859375 -0.734375 -3.265625q-0.734375 -1.40625 -1.984375 -2.171875q-1.25 -0.78125 -2.65625 -0.78125q-1.4375 0 -2.671875 0.78125q-1.234375 0.765625 -1.984375 2.171875q-0.75 1.40625 -0.75 3.265625q0 1.859375 0.75 3.265625q0.75 1.40625 1.984375 2.171875q1.234375 0.765625 2.671875 0.765625zm9.245407 1.953125l0 0zm9.986511 -22.90625l2.71875 0l0 20.3125l10.015625 0l0 2.59375l-12.734375 0l0 -22.90625zm17.334915 3.578125q-0.796875 0 -1.375 -0.578125q-0.578125 -0.578125 -0.578125 -1.375q0 -0.828125 0.578125 -1.390625q0.578125 -0.5625 1.375 -0.5625q0.84375 0 1.390625 0.5625q0.5625 0.5625 0.5625 1.390625q0 0.796875 -0.5625 1.375q-0.546875 0.578125 -1.390625 0.578125zm-1.34375 3.015625l2.71875 0l0 16.3125l-2.71875 0l0 -16.3125zm6.98201 0l2.59375 0l0 2.390625l0.125 0q0.671875 -1.21875 2.140625 -2.0625q1.484375 -0.84375 3.140625 -0.84375q2.9375 0 4.484375 1.71875q1.5625 1.703125 1.5625 4.640625l0 10.46875l-2.71875 0l0 -10.046875q0 -2.265625 -1.09375 -3.296875q-1.078125 -1.03125 -2.96875 -1.03125q-1.3125 0 -2.359375 0.75q-1.03125 0.734375 -1.609375 1.9375q-0.578125 1.1875 -0.578125 2.5l0 9.1875l-2.71875 0l0 -16.3125zm17.952042 -6.59375l2.71875 0l0 14.390625l7.6875 -7.796875l3.453125 0l0 0.125l-6.40625 6.453125l6.59375 9.609375l0 0.125l-3.265625 0l-5.25 -7.84375l-2.8125 2.8125l0 5.03125l-2.71875 0l0 -22.90625zm21.543152 23.421875q-2.625 0 -4.390625 -1.234375q-1.765625 -1.234375 -2.5 -3.15625l2.4375 -1.078125q0.609375 1.46875 1.796875 2.265625q1.203125 0.796875 2.65625 0.796875q1.53125 0 2.609375 -0.625q1.09375 -0.625 1.09375 -1.765625q0 -1.03125 -0.859375 -1.65625q-0.859375 -0.625 -2.71875 -1.078125l-1.984375 -0.5q-1.953125 -0.484375 -3.203125 -1.625q-1.25 -1.15625 -1.25 -2.984375q0 -1.40625 0.84375 -2.484375q0.859375 -1.078125 2.265625 -1.640625q1.40625 -0.578125 3.03125 -0.578125q2.15625 0 3.828125 0.9375q1.6875 0.921875 2.390625 2.578125l-2.375 1.09375q-1.09375 -2.1875 -3.875 -2.1875q-1.34375 0 -2.359375 0.625q-1.0 0.625 -1.0 1.59375q0 0.890625 0.703125 1.453125q0.703125 0.5625 2.109375 0.90625l2.375 0.609375q2.40625 0.609375 3.609375 1.8125q1.21875 1.203125 1.21875 2.921875q0 1.515625 -0.859375 2.65625q-0.859375 1.125 -2.34375 1.734375q-1.46875 0.609375 -3.25 0.609375z"
       fill-rule="nonzero"
       id="path37" />
    <path
       fill="#000000"
       fill-opacity="0.0"
       d="m5.889764 75.385826l229.38582 0l0 58.173225l-229.38582 0z"
       fill-rule="evenodd"
       id="path39" />
    <path
       fill="#ffffff"
       d="m 53.129417,94.19958 h 3 l 4.171875,16.82812 0.375,1.5625 h 0.125 l 0.484375,-1.5625 5.125,-16.82812 h 2.8125 l 4.890625,16.82812 0.484375,1.5625 h 0.125 l 4.515625,-18.39062 h 3 l -6.171875,22.90625 h -2.8125 L 68.395042,100.5277 67.879417,98.73083 h -0.125 l -0.546875,1.79687 -5.0625,16.57813 h -2.8125 z m 37.11844,23.42187 q -2.34375,0 -4.203125,-1.125 -1.84375,-1.125 -2.890625,-3.07812 -1.03125,-1.96875 -1.03125,-4.4375 0,-2.34375 0.96875,-4.34375 0.984375,-2 2.78125,-3.17188 1.8125,-1.1875 4.15625,-1.1875 2.390625,0 4.140625,1.07813 1.765625,1.0625 2.703125,2.95312 0.953125,1.89063 0.953125,4.3125 0,0.39063 -0.0625,0.84375 H 84.841607 q 0.09375,1.84375 0.890625,3.125 0.796875,1.28125 2.03125,1.92188 1.234375,0.64062 2.578125,0.64062 3.203125,0 4.828125,-2.9375 l 2.3125,1.10938 q -1.03125,1.95312 -2.859375,3.125 -1.8125,1.17187 -4.375,1.17187 z m 4.703125,-10.40625 q -0.0625,-1.01562 -0.578125,-2.03125 -0.515625,-1.03125 -1.609375,-1.73437 -1.078125,-0.71875 -2.734375,-0.71875 -1.921875,0 -3.265625,1.23437 -1.34375,1.23438 -1.765625,3.25 z m 14.328538,10.40625 q -1.84375,0 -3.34375,-0.84375 -1.48438,-0.85937 -2.21875,-2.07812 h -0.125 v 2.40625 h -2.59375 V 94.19958 h 2.71875 v 6.75 l -0.125,2.26562 h 0.125 q 0.73437,-1.25 2.21875,-2.09375 1.5,-0.84375 3.34375,-0.84375 2.21875,0 3.98437,1.125 1.78125,1.10938 2.79688,3.09375 1.03125,1.98438 1.03125,4.45313 0,2.5 -1.03125,4.46875 -1.01563,1.95312 -2.79688,3.07812 -1.76562,1.125 -3.98437,1.125 z m -0.28125,-2.46875 q 1.40625,0 2.65625,-0.76562 1.25,-0.76563 1.98437,-2.17188 0.73438,-1.40625 0.73438,-3.26562 0,-1.85938 -0.73438,-3.26563 -0.73437,-1.40625 -1.98437,-2.17187 -1.25,-0.78125 -2.65625,-0.78125 -1.4375,0 -2.67188,0.78125 -1.23437,0.76562 -1.98437,2.17187 -0.75,1.40625 -0.75,3.26563 0,1.85937 0.75,3.26562 0.75,1.40625 1.98437,2.17188 1.23438,0.76562 2.67188,0.76562 z m 9.24841,1.95313 z m 9.43964,-22.90625 h 2.71876 v 22.90625 h -2.71876 z m 8.34577,3.578125 q -0.79688,0 -1.375,-0.578125 -0.57813,-0.578125 -0.57813,-1.375 0,-0.828125 0.57813,-1.390625 0.57812,-0.5625 1.375,-0.5625 0.84375,0 1.39062,0.5625 0.5625,0.5625 0.5625,1.390625 0,0.796875 -0.5625,1.375 -0.54687,0.578125 -1.39062,0.578125 z m -1.34375,3.015625 h 2.71875 v 16.3125 h -2.71875 z m 6.98201,0 h 2.59375 v 2.39062 h 0.125 q 0.67188,-1.21875 2.14063,-2.0625 1.48437,-0.84375 3.14062,-0.84375 2.9375,0 4.48438,1.71875 1.5625,1.70313 1.5625,4.64063 v 10.46875 h -2.71875 v -10.04688 q 0,-2.26562 -1.09375,-3.29687 -1.07813,-1.03125 -2.96875,-1.03125 -1.3125,0 -2.35938,0.75 -1.03125,0.73437 -1.60937,1.9375 -0.57813,1.1875 -0.57813,2.5 v 9.1875 h -2.71875 z m 17.95204,-6.59375 h 2.71875 v 14.39062 l 7.6875,-7.79687 h 3.45313 v 0.125 l -6.40625,6.45312 6.59375,9.60938 v 0.125 h -3.26563 l -5.25,-7.84375 -2.8125,2.8125 v 5.03125 h -2.71875 z m 21.54315,23.42187 q -2.625,0 -4.39062,-1.23437 -1.76563,-1.23438 -2.5,-3.15625 l 2.4375,-1.07813 q 0.60937,1.46875 1.79687,2.26563 1.20313,0.79687 2.65625,0.79687 1.53125,0 2.60938,-0.625 1.09375,-0.625 1.09375,-1.76562 0,-1.03125 -0.85938,-1.65625 -0.85937,-0.625 -2.71875,-1.07813 l -1.98437,-0.5 q -1.95313,-0.48437 -3.20313,-1.625 -1.25,-1.15625 -1.25,-2.98437 0,-1.40625 0.84375,-2.48438 0.85938,-1.07812 2.26563,-1.64062 1.40625,-0.57813 3.03125,-0.57813 2.15625,0 3.82812,0.9375 1.6875,0.92188 2.39063,2.57813 l -2.375,1.09375 q -1.09375,-2.1875 -3.875,-2.1875 -1.34375,0 -2.35938,0.625 -1,0.625 -1,1.59375 0,0.89062 0.70313,1.45312 0.70312,0.5625 2.10937,0.90625 l 2.375,0.60938 q 2.40625,0.60937 3.60938,1.8125 1.21875,1.20312 1.21875,2.92187 0,1.51563 -0.85938,2.65625 -0.85937,1.125 -2.34375,1.73438 -1.46875,0.60937 -3.25,0.60937 z"
       fill-rule="nonzero"
       id="path41" />
    <path
       fill="#000000"
       fill-opacity="0.0"
       d="m-0.22572179 6.0l241.79527 0l0 48.031498l-241.79527 0z"
       fill-rule="evenodd"
       id="path43" />
    <path
       fill="#000000"
       d="m49.394264 13.813749l6.90625 0q3.515625 0 6.140625 1.453125q2.625 1.453125 4.03125 4.046875q1.421875 2.59375 1.421875 5.953125q0 3.359375 -1.421875 5.953125q-1.40625 2.593752 -4.03125 4.046877q-2.625 1.453125 -6.140625 1.453125l-6.90625 0l0 -22.906252zm6.90625 20.312502q4.0625 0 6.4375 -2.328127q2.390625 -2.34375 2.390625 -6.53125q0 -4.1875 -2.390625 -6.515625q-2.375 -2.34375 -6.4375 -2.34375l-4.1875 0l0 17.718752l4.1875 0zm21.828552 3.109375q-2.34375 0 -4.203125 -1.125q-1.84375 -1.125 -2.890625 -3.078125q-1.03125 -1.9687519 -1.03125 -4.437502q0 -2.34375 0.96875 -4.34375q0.984375 -2.0 2.78125 -3.171875q1.8125 -1.1875 4.15625 -1.1875q2.390625 0 4.140625 1.078125q1.765625 1.0625 2.703125 2.953125q0.953125 1.890625 0.953125 4.3125q0 0.390625 -0.0625 0.84375l-12.921875 0q0.09375 1.84375 0.890625 3.125002q0.796875 1.28125 2.03125 1.921875q1.234375 0.640625 2.578125 0.640625q3.203125 0 4.828125 -2.937502l2.3125 1.1093769q-1.03125 1.953125 -2.859375 3.125q-1.8125 1.171875 -4.375 1.171875zm4.703125 -10.406252q-0.0625 -1.015625 -0.578125 -2.03125q-0.515625 -1.03125 -1.609375 -1.734375q-1.078125 -0.71875 -2.734375 -0.71875q-1.921875 0 -3.265625 1.234375q-1.34375 1.234375 -1.765625 3.25l9.953125 0zm13.472916 10.406252q-2.34375 0 -4.203125 -1.125q-1.84375 -1.125 -2.890625 -3.078125q-1.03125 -1.9687519 -1.03125 -4.437502q0 -2.34375 0.96875 -4.34375q0.984375 -2.0 2.78125 -3.171875q1.8125 -1.1875 4.15625 -1.1875q2.390625 0 4.140625 1.078125q1.765625 1.0625 2.703125 2.953125q0.953125 1.890625 0.953125 4.3125q0 0.390625 -0.0625 0.84375l-12.921875 0q0.09375 1.84375 0.890625 3.125002q0.796875 1.28125 2.03125 1.921875q1.234375 0.640625 2.578125 0.640625q3.203125 0 4.828125 -2.937502l2.3125 1.1093769q-1.03125 1.953125 -2.859375 3.125q-1.8125 1.171875 -4.375 1.171875zm4.703125 -10.406252q-0.0625 -1.015625 -0.578125 -2.03125q-0.515625 -1.03125 -1.609375 -1.734375q-1.078125 -0.71875 -2.734375 -0.71875q-1.921875 0 -3.265625 1.234375q-1.34375 1.234375 -1.765625 3.25l9.953125 0zm5.922287 -6.421875l2.59375 0l0 2.421875l0.125 0q0.734375 -1.25 2.21875 -2.09375q1.484375 -0.84375 3.34375 -0.84375q2.21875 0 3.984375 1.125q1.78125 1.109375 2.796875 3.09375q1.03125 1.984375 1.03125 4.453125q0 2.5 -1.03125 4.468752q-1.015625 1.953125 -2.796875 3.078125q-1.765625 1.125 -3.984375 1.125q-1.859375 0 -3.34375 -0.84375q-1.484375 -0.859375 -2.21875 -2.078125l-0.125 0l0.125 2.25l0 7.0625l-2.71875 0l0 -23.218752zm8.0 14.359377q1.40625 0 2.65625 -0.765625q1.25 -0.765625 1.984375 -2.171877q0.734375 -1.40625 0.734375 -3.265625q0 -1.859375 -0.734375 -3.265625q-0.734375 -1.40625 -1.984375 -2.171875q-1.25 -0.78125 -2.65625 -0.78125q-1.4375 0 -2.671875 0.78125q-1.234375 0.765625 -1.984375 2.171875q-0.75 1.40625 -0.75 3.265625q0 1.859375 0.75 3.265625q0.75 1.4062519 1.984375 2.171877q1.234375 0.765625 2.671875 0.765625zm9.245407 1.953125l0 0zm9.439629 -22.906252l2.71875 0l0 22.906252l-2.71875 0l0 -22.906252zm8.345764 3.578125q-0.796875 0 -1.375 -0.578125q-0.578125 -0.578125 -0.578125 -1.375q0 -0.828125 0.578125 -1.390625q0.578125 -0.5625 1.375 -0.5625q0.84375 0 1.390625 0.5625q0.5625 0.5625 0.5625 1.390625q0 0.796875 -0.5625 1.375q-0.546875 0.578125 -1.390625 0.578125zm-1.34375 3.015625l2.71875 0l0 16.312502l-2.71875 0l0 -16.312502zm6.982025 0l2.59375 0l0 2.390625l0.125 0q0.671875 -1.21875 2.140625 -2.0625q1.484375 -0.84375 3.140625 -0.84375q2.9375 0 4.484375 1.71875q1.5625 1.703125 1.5625 4.640625l0 10.468752l-2.71875 0l0 -10.046877q0 -2.265625 -1.09375 -3.296875q-1.078125 -1.03125 -2.96875 -1.03125q-1.3125 0 -2.359375 0.75q-1.03125 0.734375 -1.609375 1.9375q-0.578125 1.1875 -0.578125 2.5l0 9.187502l-2.71875 0l0 -16.312502zm17.952026 -6.59375l2.71875 0l0 14.390625l7.6875 -7.796875l3.453125 0l0 0.125l-6.40625 6.453125l6.59375 9.609377l0 0.125l-3.265625 0l-5.25 -7.843752l-2.8125 2.8125l0 5.031252l-2.71875 0l0 -22.906252zm21.543152 23.421877q-2.625 0 -4.390625 -1.234375q-1.765625 -1.234375 -2.5 -3.15625l2.4375 -1.0781269q0.609375 1.4687519 1.796875 2.265627q1.203125 0.796875 2.65625 0.796875q1.53125 0 2.609375 -0.625q1.09375 -0.625 1.09375 -1.765625q0 -1.0312519 -0.859375 -1.6562519q-0.859375 -0.625 -2.71875 -1.078125l-1.984375 -0.5q-1.953125 -0.484375 -3.203125 -1.625q-1.25 -1.15625 -1.25 -2.984375q0 -1.40625 0.84375 -2.484375q0.859375 -1.078125 2.265625 -1.640625q1.40625 -0.578125 3.03125 -0.578125q2.15625 0 3.828125 0.9375q1.6875 0.921875 2.390625 2.578125l-2.375 1.09375q-1.09375 -2.1875 -3.875 -2.1875q-1.34375 0 -2.359375 0.625q-1.0 0.625 -1.0 1.59375q0 0.890625 0.703125 1.453125q0.703125 0.5625 2.109375 0.90625l2.375 0.609375q2.40625 0.609375 3.609375 1.8125q1.21875 1.203125 1.21875 2.921877q0 1.515625 -0.859375 2.65625q-0.859375 1.125 -2.34375 1.734375q-1.46875 0.609375 -3.25 0.609375z"
       fill-rule="nonzero"
       id="path45" />
  </g>
  <text
     xml:space="preserve"
     style="font-style:normal;font-weight:normal;font-size:13.33333333px;line-height:1.05;font-family:sans-serif;text-align:center;text-anchor:middle;fill:#ffffff;fill-opacity:1;stroke:none"
     x="120.57142"
     y="142.60855"
     id="text15358"><tspan
       sodipodi:role="line"
       x="120.57142"
       y="142.60855"
       id="tspan62517">Handle HTTP / HTTPS schemes</tspan></text>
</svg>
